<?xml version="1.0" encoding="utf-8"?>
<!-- Generator: Adobe Illustrator 27.5.0, SVG Export Plug-In . SVG Version: 6.00 Build 0)  -->
<svg version="1.1" xmlns="http://www.w3.org/2000/svg" xmlns:xlink="http://www.w3.org/1999/xlink" x="0px" y="0px"
	 viewBox="0 0 750 500" style="enable-background:new 0 0 750 500;" xml:space="preserve">
<g id="BACKGROUND">
	<rect style="fill:#526041;" width="750" height="500"/>
</g>
<g id="OBJECTS">
	<g>
		<defs>
			<rect id="SVGID_1_" width="750" height="500"/>
		</defs>
		<clipPath id="SVGID_00000010270428785381009180000000092177996052146571_">
			<use xlink:href="#SVGID_1_"  style="overflow:visible;"/>
		</clipPath>
		<path style="clip-path:url(#SVGID_00000010270428785381009180000000092177996052146571_);fill:#5C6C48;" d="M16.337,253.68
			c-8.273-2.373-17.112-4.748-25.343-2.234c-17.879,5.462-21.581,28.736-21.964,47.427c-5.432,265.42-9.311,272.103,40.453,281.677
			c62.428,12.01,202.471,54.496,258.898,15.372c36.722-25.461,21.138-44.135,5.768-75.349
			C216.579,403.662,269.391,326.252,16.337,253.68z"/>
		<path style="clip-path:url(#SVGID_00000010270428785381009180000000092177996052146571_);fill:#404A32;" d="M646.859,551.487
			c-34.274-23.474-62.189-59.849-65.198-101.282c-4.818-66.352,52.395-121.255,64.59-186.654
			c14.915-79.983-63.974-74.408-102.65-77.686c-98.151-8.319-168.14-89.243-166.012-143.006
			c4.463-112.764,234.567-126.137,346.474-107c34.961,5.978,45.964,15.865,54.919,57.155
			c38.521,177.614,79.212,374.206,16.753,546.197C766.844,618.767,707.659,593.128,646.859,551.487z"/>
		<path style="clip-path:url(#SVGID_00000010270428785381009180000000092177996052146571_);fill:#404A32;" d="M107.424,260.615
			c4.875-73.003,5.691-146.366-0.09-219.303C100.943-39.32,68.861-68.578-27.902-42.141c-9.004,2.46-18.369,5.112-25.288,11.378
			C-75.991-10.117-76.68,59.102-75.958,89.771c1.414,60.026-7.055,173.232,32.846,225.161
			C4.693,377.149,102.69,331.502,107.424,260.615z"/>
		<path style="clip-path:url(#SVGID_00000010270428785381009180000000092177996052146571_);fill:#5C6C48;" d="M692.624,198.958
			c-1.856-87.981,29.513-145.275,50.721-145.908c5.21-0.156,10.101,2.549,14.147,5.835c15.135,12.291,21.329,32.257,26.193,51.138
			c15.341,59.556,70.758,253.916,16.21,300.857C718.311,481.085,693.438,237.533,692.624,198.958z"/>
		<path style="clip-path:url(#SVGID_00000010270428785381009180000000092177996052146571_);fill:#404A32;" d="M910.186,278.444
			c4.875-42.074,5.691-84.355-0.09-126.391c-6.391-46.471-38.473-63.333-135.235-48.097c-9.004,1.418-18.369,2.947-25.288,6.557
			c-22.801,11.899-23.491,51.792-22.768,69.467c1.414,34.595-7.055,99.839,32.846,129.768
			C807.455,345.606,905.452,319.298,910.186,278.444z"/>
		<path style="clip-path:url(#SVGID_00000010270428785381009180000000092177996052146571_);fill:#404A32;" d="M162.224,586.016
			c4.875-42.074,5.691-84.355-0.09-126.391c-6.391-46.471-38.473-63.333-135.236-48.096c-9.004,1.418-18.369,2.947-25.288,6.557
			c-22.801,11.899-23.491,51.792-22.768,69.467c1.414,34.595-7.055,99.839,32.846,129.768
			C59.494,653.178,157.491,626.871,162.224,586.016z"/>
		<path style="clip-path:url(#SVGID_00000010270428785381009180000000092177996052146571_);fill:#718458;" d="M383.338,562.319
			c-15.492-28.401-17.788-66.599,3.265-91.163c21.159-24.689,61.135-27.806,89.07-11.166
			c43.932,26.167,57.748,91.677,37.592,131.612C476.208,665.017,410.55,612.205,383.338,562.319z"/>
		<path style="clip-path:url(#SVGID_00000010270428785381009180000000092177996052146571_);fill:#718458;" d="M211.435,124.198
			c2.775,6.879,8.235,13.998,15.65,13.819c19.95-0.481,13.589-37.151,70.292-132.227c4.431-7.43,14.887-15.338,20.118-8.448
			c-18.811,48.848-32.192,136.307-13.286,163.883c7.031,10.254,21.591,16.335,32.367,10.132
			c25.369-14.602,6.879-79.935,6.786-133.861c-0.194-112.225,64.886-144.396,49.195-172.549
			c-7.368-13.219-47.244-30.527-89.485-18.487c-35.566,10.137-30.31,20.092-40.267,43.956
			C241.2-57.803,190.224,71.629,211.435,124.198z"/>
		<path style="opacity:0.5;clip-path:url(#SVGID_00000010270428785381009180000000092177996052146571_);fill:#75895C;" d="
			M699.044,519.104c-16.619-0.426-33.269-2.815-49.808-1.127c-20.085,2.05-40.873,9.98-59.781,2.904
			c26.341-37.344,84.861-16.326,122.05-24.611c-99.301-14.289-119.674-14.179-135.586-31.642c-8.431-9.253-0.733-16.1,10.743-16.407
			c48.519-1.302,107.013,40.73,131.34,33.758c-24.682-31.123-96.05-41.386-110.23-98.326c-6.644-26.68,55.678,17.733,97.996,60.091
			c5.881,5.887,12.016,12.167,20.035,14.385c-10.609-37.33-46.963-65.038-50.828-103.654c-0.714-7.139,3.537-11.389,9.06-5.171
			c25.68,28.911,32.544,70.123,54.642,101.858c1.7-9.848,0.24-19.923-0.656-29.877c-7.221-80.275,19.281-105.783,23.249-88.899
			c6.793,28.906-0.735,91.068-4.128,123.701C751.719,508.26,749.836,520.406,699.044,519.104z"/>
		<path style="opacity:0.75;clip-path:url(#SVGID_00000010270428785381009180000000092177996052146571_);fill:#839866;" d="
			M-3.898,71.096c3.308-18.865,11.951-18.523,14.403-9.723c3.702,13.287-3.915,28.993,3.497,40.626
			c9.583-29.817,22.216-36.924,27.713-34.881c14.361,5.339-16.761,30.673-11.292,36.334c2.403,2.488,10.804-1.302,17.611,1.186
			c4.484,1.639,7.731,7.693,4.556,11.258c-2.645,2.97-7.36,2.072-11.321,2.431c-4.514,0.408-10.566,6.8-2.271,9.136
			c17.786,5.01,11.767,25.863-5.073,18.622c-5.198-2.235-9.387-6.362-14.522-8.737c-10.591,8.963,7.432,22.285,9.342,31.351
			c2.398,11.384-6.611,12.614-12.771,5.659C2.766,159.445-11.645,115.285-3.898,71.096z"/>
		<path style="opacity:0.75;clip-path:url(#SVGID_00000010270428785381009180000000092177996052146571_);fill:#839866;" d="
			M441.76,475.802c-4.52-20.607-1.118-51.432,4.295-59.02c5.419-7.595,15.159-6.454,18.062,5.273
			c0.914,3.693,1.775,13.113,5.035,14.938c4.599,2.573,13.896-7.995,17.945-11.016c10.224-7.627,35.554-9.804,2.193,59.478
			c-3.796,7.884-8.376,21.395-15.188,27.086C458.648,525.452,444.045,486.219,441.76,475.802z"/>
		<path style="opacity:0.75;clip-path:url(#SVGID_00000010270428785381009180000000092177996052146571_);fill:#839866;" d="
			M223.859,489.466c5.51,2.894,11.785,4.254,17.005,7.644c9.311,6.046,13.79,17.51,22.61,24.253
			c19.346,14.792,68.574,3.835,56.403-13.093c-4.538-6.311-15.979-2.852-20.906-8.865c-3.168-3.868-1.931-9.516-1.963-14.516
			c-0.047-7.353-4.774-15.569-12.121-15.855c-11.115-0.434-18.805,14.597-27.963-6.747c-1.808-4.213-5.079-8.815-9.653-8.502
			c-6.647,0.454-8.754,10.511-15.23,12.076c-7.639,1.845-19.394-13.873-24.5-1.487C203.774,473.507,216.89,485.805,223.859,489.466z
			"/>
		<path style="clip-path:url(#SVGID_00000010270428785381009180000000092177996052146571_);fill:#404A32;" d="M149.019,47.612
			c-0.232,23.952-16.043,16.255-19.225,8.82c-3.419-7.989,2.63-44.934,16.954-61.979c25.88-30.797,82.403-33.741,77.706-10.726
			c-1.535,7.521-11.178,9.944-18.825,9.26c-17.509-1.566-27.707-2.005-39.917,11.861C155.4,16.559,149.171,31.965,149.019,47.612z"
			/>
	</g>
	<g>
		<defs>
			<rect id="SVGID_00000005984979885459753140000018007792561064815282_" width="750" height="500"/>
		</defs>
		<clipPath id="SVGID_00000021082751751161466530000001823491483565573292_">
			<use xlink:href="#SVGID_00000005984979885459753140000018007792561064815282_"  style="overflow:visible;"/>
		</clipPath>
		<g style="clip-path:url(#SVGID_00000021082751751161466530000001823491483565573292_);">
			<path style="fill:none;stroke:#89A16D;stroke-width:1.5;stroke-linecap:round;stroke-linejoin:round;stroke-miterlimit:10;" d="
				M592.608,109.235c-5.846,21.699-1.56,26.967-29.144,46.901c-10.726-28.006,32.161-88.925,37.784-77.438
				C604.529,85.401,594.425,102.491,592.608,109.235z"/>
			<path style="fill:none;stroke:#89A16D;stroke-width:1.5;stroke-linecap:round;stroke-linejoin:round;stroke-miterlimit:10;" d="
				M570.075,78.541c-8.273-0.749-37.712-7.904-43.67-11.949c-6.034-4.096-9.532-10.914-12.784-17.443
				c16.974,8.462,38.511-3.654,74.746,15.473C607.222,74.575,579.344,79.38,570.075,78.541z"/>
			<path style="fill:none;stroke:#89A16D;stroke-width:1.5;stroke-linecap:round;stroke-linejoin:round;stroke-miterlimit:10;" d="
				M632.988,103.45c-0.354,18.78-7.949,37.18-20.254,51.372c-0.647-7.397-1.294-14.795-1.941-22.192
				C604.819,64.361,634.031,48.126,632.988,103.45z"/>
			<path style="fill:none;stroke:#89A16D;stroke-width:1.5;stroke-linecap:round;stroke-linejoin:round;stroke-miterlimit:10;" d="
				M602.686,61.556c-62.193-15.65-42.263-25.939-60.618-38.332c42.776-1.554,31.148,22.973,66.899,30.112
				c3.373,0.674,20.397,3.778,14.36,9.471C619.492,66.425,606.995,62.64,602.686,61.556z"/>
			<path style="fill:none;stroke:#89A16D;stroke-width:1.5;stroke-linecap:round;stroke-linejoin:round;stroke-miterlimit:10;" d="
				M663.883,59.794c10.458,36.781-8.641,60.386,7.197,79.819C622.727,112.401,656.198,32.767,663.883,59.794z"/>
			<path style="fill:none;stroke:#89A16D;stroke-width:1.5;stroke-linecap:round;stroke-linejoin:round;stroke-miterlimit:10;" d="
				M590.172,28.837c30.173-19.636,78.452,12.042,65.902,17.556C631.855,57.033,603.807,31.268,590.172,28.837z"/>
			<path style="fill:none;stroke:#89A16D;stroke-width:1.5;stroke-linecap:round;stroke-linejoin:round;stroke-miterlimit:10;" d="
				M699.625,73.518c-2.962,18.739-15,36.618-11.208,55.207c-27.593-52.939-7.829-90.651,0.132-94.081
				C696.263,31.322,702.001,58.488,699.625,73.518z"/>
			<path style="fill:none;stroke:#89A16D;stroke-width:1.5;stroke-linecap:round;stroke-linejoin:round;stroke-miterlimit:10;" d="
				M681.605,25.388c-28.354,3.937-34.106-21.313-51.521-25.777C684.538-6.829,703.216,22.388,681.605,25.388z"/>
			<path style="fill:none;stroke:#89A16D;stroke-width:1.5;stroke-linecap:round;stroke-linejoin:round;stroke-miterlimit:10;" d="
				M729.351,35.797c-1.283,20.618-7.365,31.153,9.747,68.725c-22.153-0.106-37.843-39.655-28.892-71.141
				C716.978,9.559,731.404,2.81,729.351,35.797z"/>
			<path style="fill:none;stroke:#89A16D;stroke-width:1.5;stroke-linecap:round;stroke-linejoin:round;stroke-miterlimit:10;" d="
				M713.343,1.859c-33.89,4.292-43.405-18.245-59.681-20.247c26.398-8.499,76.228-1.486,73.562,12.662
				C726.159-0.075,717.981,1.271,713.343,1.859z"/>
			<path style="fill:none;stroke:#89A16D;stroke-width:1.5;stroke-linecap:round;stroke-linejoin:round;stroke-miterlimit:10;" d="
				M530.663,61.036c79.513,22.879,93.204,8.464,191.301-57.894c25.274-17.097,31.105-30.518,37.058-27.929
				c14.654,6.384-81.414,65.294-148.942,98.51c-10.161,4.998-12.959,7.187-18.119,16.951c-6.82,12.906-12.453,26.438-16.806,40.371"
				/>
			<path style="fill:none;stroke:#89A16D;stroke-width:1.5;stroke-linecap:round;stroke-linejoin:round;stroke-miterlimit:10;" d="
				M616.718,135.096c3.237-8.528,2.43-67.662,20.992-76.353"/>
			<path style="fill:none;stroke:#89A16D;stroke-width:1.5;stroke-linecap:round;stroke-linejoin:round;stroke-miterlimit:10;" d="
				M557.049,30.108c18.503,17.371,43.682,28.775,68.711,32.971"/>
			<path style="fill:none;stroke:#89A16D;stroke-width:1.5;stroke-linecap:round;stroke-linejoin:round;stroke-miterlimit:10;" d="
				M660.078,121.9c-8.058-24.992-11.262-45.708,5.806-77.804"/>
			<path style="fill:none;stroke:#89A16D;stroke-width:1.5;stroke-linecap:round;stroke-linejoin:round;stroke-miterlimit:10;" d="
				M604.068,29.195c16.021,3.708,29.919,15.064,57.258,14.548"/>
			<path style="fill:none;stroke:#89A16D;stroke-width:1.5;stroke-linecap:round;stroke-linejoin:round;stroke-miterlimit:10;" d="
				M684.451,100.584c-6.049-23.225,2.687-62.371,10.564-73.513"/>
			<path style="fill:none;stroke:#89A16D;stroke-width:1.5;stroke-linecap:round;stroke-linejoin:round;stroke-miterlimit:10;" d="
				M646.563,2.613c5.961,2.299,36.55,24.273,48.965,18.479"/>
			<path style="fill:none;stroke:#89A16D;stroke-width:1.5;stroke-linecap:round;stroke-linejoin:round;stroke-miterlimit:10;" d="
				M726.272,88.116c-12.623-19.979-6.41-65.651,0.346-81.101"/>
			<path style="fill:none;stroke:#89A16D;stroke-width:1.5;stroke-linecap:round;stroke-linejoin:round;stroke-miterlimit:10;" d="
				M669.401-17.506C688.122-5.742,711.308-1.29,733.055-5.283"/>
		</g>
		<g style="clip-path:url(#SVGID_00000021082751751161466530000001823491483565573292_);">
			<path style="fill:none;stroke:#89A16D;stroke-width:1.5;stroke-linecap:round;stroke-linejoin:round;stroke-miterlimit:10;" d="
				M41.946,295.342c-9.489-38.993,9.798-61.593,13.669-78.352c8.814,31.27,10.67,64.481,5.394,96.54
				C59.67,321.665,46.555,314.283,41.946,295.342z"/>
			<path style="fill:none;stroke:#89A16D;stroke-width:1.5;stroke-linecap:round;stroke-linejoin:round;stroke-miterlimit:10;" d="
				M84.224,272.812c13.477-14.768,31.132-24.9,47.591-36.251c-34.601,42.607-34.764,69.014-55.572,86.43
				c-1.546,1.294-4.911,4.321-7.113,4.132C64.056,326.688,61.29,297.944,84.224,272.812z"/>
			<path style="fill:none;stroke:#89A16D;stroke-width:1.5;stroke-linecap:round;stroke-linejoin:round;stroke-miterlimit:10;" d="
				M46.375,357.386c-29.712-9.964-55.966-29.947-73.486-55.931c15.152,10.296,33.108,15.43,49.972,22.586
				C59.907,339.762,79.924,368.637,46.375,357.386z"/>
			<path style="fill:none;stroke:#89A16D;stroke-width:1.5;stroke-linecap:round;stroke-linejoin:round;stroke-miterlimit:10;" d="
				M111.278,336.481c-18.92,27.17-0.128,63.461-13.821,95.124C77.908,476.81,51.135,380.268,111.278,336.481z"/>
			<path style="fill:none;stroke:#89A16D;stroke-width:1.5;stroke-linecap:round;stroke-linejoin:round;stroke-miterlimit:10;" d="
				M49.966,418.988c-28.974-12.389-50.44-40.846-54.395-72.108c4.069,6.939,8.613,13.758,14.787,18.914
				c11.955,9.984,43.144,21.326,53.225,33.068C75.495,412.738,70.495,427.766,49.966,418.988z"/>
			<path style="fill:none;stroke:#89A16D;stroke-width:1.5;stroke-linecap:round;stroke-linejoin:round;stroke-miterlimit:10;" d="
				M57.513,489.691c-26.722-5.915-52.392-38.955-62.598-66.093c25.281,25.927,49.131,29.165,63.079,36.548
				C93.779,479.088,78.078,494.243,57.513,489.691z"/>
			<path style="fill:none;stroke:#89A16D;stroke-width:1.5;stroke-linecap:round;stroke-linejoin:round;stroke-miterlimit:10;" d="
				M99.886,461.452c10.654-18.801,31.418-29.004,47.879-43.005c-6.043,20.825-15.481,40.661-27.828,58.487
				C84.477,528.127,88.227,482.026,99.886,461.452z"/>
			<path style="fill:none;stroke:#89A16D;stroke-width:1.5;stroke-linecap:round;stroke-linejoin:round;stroke-miterlimit:10;" d="
				M54.473,240.18c-6.262,60.388,2.152,67.934,8.433,86.688c16.126,48.147-3.93,142.387,43.403,201.255"/>
			<path style="fill:none;stroke:#89A16D;stroke-width:1.5;stroke-linecap:round;stroke-linejoin:round;stroke-miterlimit:10;" d="
				M112.808,254.92c-23.537,20.738-40.292,51.445-47.141,82.058"/>
			<path style="fill:none;stroke:#89A16D;stroke-width:1.5;stroke-linecap:round;stroke-linejoin:round;stroke-miterlimit:10;" d="
				M-3.774,319.389c19.662,21.079,54.845,22.44,73.104,44.745"/>
			<path style="fill:none;stroke:#89A16D;stroke-width:1.5;stroke-linecap:round;stroke-linejoin:round;stroke-miterlimit:10;" d="
				M98.629,356.55c-14.09,33.084,1.897,78.711-22.715,94.262"/>
			<path style="fill:none;stroke:#89A16D;stroke-width:1.5;stroke-linecap:round;stroke-linejoin:round;stroke-miterlimit:10;" d="
				M6.365,368.292c16.13,23.732,49.946,27.879,66.311,51.45"/>
			<path style="fill:none;stroke:#89A16D;stroke-width:1.5;stroke-linecap:round;stroke-linejoin:round;stroke-miterlimit:10;" d="
				M137.707,431.136c-16.064,15.284-47.502,55.334-44.892,75.953"/>
			<path style="fill:none;stroke:#89A16D;stroke-width:1.5;stroke-linecap:round;stroke-linejoin:round;stroke-miterlimit:10;" d="
				M11.871,443.556c17.495,23.402,51.959,24.122,74.269,48.251"/>
		</g>
		
			<path style="opacity:0.5;clip-path:url(#SVGID_00000021082751751161466530000001823491483565573292_);fill:none;stroke:#89A16D;stroke-width:3;stroke-linecap:round;stroke-linejoin:round;stroke-miterlimit:10;" d="
			M462.108-50.086c-69.484,67.488-49.228,144.247-4.882,168.22c24.639,13.32,46.266,4.533,52.171-11.155
			c7.322-19.454-16.426-57.083,18.915-106.342c15.756-21.96,40.056-37.617,66.564-42.889"/>
		
			<path style="opacity:0.5;clip-path:url(#SVGID_00000021082751751161466530000001823491483565573292_);fill:none;stroke:#89A16D;stroke-width:3;stroke-linecap:round;stroke-linejoin:round;stroke-miterlimit:10;" d="
			M486.957-29.168c-31.874,28.574-49.603,75.917-40.915,97.104c6.523,15.906,33.672,26.243,39.603-16.419
			c5.126-36.872,13.78-77.245,43.643-99.473"/>
		
			<path style="opacity:0.5;clip-path:url(#SVGID_00000021082751751161466530000001823491483565573292_);fill:none;stroke:#89A16D;stroke-width:3;stroke-linecap:round;stroke-linejoin:round;stroke-miterlimit:10;" d="
			M204.905,603.544c-42.438-31.038-55.906-95.492-29.447-140.926c9.198-15.794,23.034-32.851,16.902-50.068
			c-7.695-21.607-42.075-26.034-46.199-48.597c-7.25-39.668,72.272-55.488,129.101,28.173
			c36.666,53.978,48.124,127.595,136.269,254.226"/>
		
			<path style="opacity:0.5;clip-path:url(#SVGID_00000021082751751161466530000001823491483565573292_);fill:none;stroke:#89A16D;stroke-width:3;stroke-linecap:round;stroke-linejoin:round;stroke-miterlimit:10;" d="
			M265.635-62.683C215.509-18.92,250.954,73.46,221.699,132.22c-8.309,16.688-23.796,20.49-29.621,1.231
			c-9.613-31.782,5.17-65.724,3.452-98.883c-0.395-7.625-6.29-17.736-12.9-13.913c-13.094,7.572-22.273,65.137-40.802,89.931
			c-17.219,23.041-33.383-44.855,8.511-78.945c9.35-7.608,20.749-13.009,28.053-22.598c10.621-13.943,9.351-35.591-2.828-48.197"/>
		
			<path style="opacity:0.5;clip-path:url(#SVGID_00000021082751751161466530000001823491483565573292_);fill:none;stroke:#89A16D;stroke-width:3;stroke-linecap:round;stroke-linejoin:round;stroke-miterlimit:10;" d="
			M65.646-13.65c66.189,108.86,29.476,213.433,10.396,170.506c-15.05-33.859,4.698-76.342-13.117-111.354
			C50.905,21.878,8.431-5.077,22.918-36.82"/>
		
			<path style="opacity:0.5;clip-path:url(#SVGID_00000021082751751161466530000001823491483565573292_);fill:none;stroke:#89A16D;stroke-width:3;stroke-linecap:round;stroke-linejoin:round;stroke-miterlimit:10;" d="
			M483.476,586.679c-29.536-5.055-64.084-69.843-75.567-97.646c-43.593-105.554,33.678-144.486,48.119-113.594
			c1.27,2.716,1.862,5.912,4.09,7.919c5.828,5.25,14.028-2.312,21.118-5.668c11.662-5.52,26.16,2.239,32.429,13.516
			c14.575,26.214-1.713,133.602-6.096,158.418"/>
		
			<path style="opacity:0.5;clip-path:url(#SVGID_00000021082751751161466530000001823491483565573292_);fill:none;stroke:#89A16D;stroke-width:3;stroke-linecap:round;stroke-linejoin:round;stroke-miterlimit:10;" d="
			M611.811,610.427c-62.57-59.075-80.369-160.379-41.682-237.244c15.18-30.16,38.404-57.955,41.266-91.598
			c2.702-31.756-15.591-64.286-44.129-78.474c-24.785-12.322-53.878-11.024-80.966-16.713
			C362.712,160.445,318.762,4.403,411.221-82.124"/>
	</g>
	<path style="fill:#5C6C48;" d="M669.431,265.909c7.528-47.559-15.563-73.183-12.371-64.993
		c19.956,51.192,10.812,92.564-19.244,124.642C631.962,331.808,662.276,311.113,669.431,265.909z"/>
	<path style="fill:#5C6C48;" d="M687.752,244.834c-0.413-1.431-2.562-0.872-2.484,0.54c1.481,26.609,0.494,45.204-17.083,69.053
		c-0.307,0.416,0.265,0.931,0.614,0.532C687.606,293.497,693.016,263.06,687.752,244.834z"/>
</g>
</svg>
